solid 
   facet normal 0.000000e+00 -0.000000e+00 -1.000000e+00
      outer loop
         vertex 1.409539e+00 5.130302e-01 0.000000e+00
         vertex 1.227809e+01 8.616756e+00 0.000000e+00
         vertex 1.392367e+01 5.579557e+00 0.000000e+00
      endloop
   endfacet
   facet normal 0.000000e+00 -0.000000e+00 -1.000000e+00
      outer loop
         vertex 7.500000e-01 1.299038e+00 0.000000e+00
         vertex 7.155293e+00 1.318339e+01 0.000000e+00
         vertex 9.981364e+00 1.119698e+01 0.000000e+00
      endloop
   endfacet
   facet normal 0.000000e+00 -0.000000e+00 -1.000000e+00
      outer loop
         vertex -2.604723e-01 1.477212e+00 0.000000e+00
         vertex 5.347429e-01 1.499047e+01 0.000000e+00
         vertex 3.949752e+00 1.447064e+01 0.000000e+00
      endloop
   endfacet
   facet normal 0.000000e+00 0.000000e+00 -1.000000e+00
      outer loop
         vertex -2.604723e-01 1.477212e+00 0.000000e+00
         vertex -6.197740e+00 1.365972e+01 0.000000e+00
         vertex -2.908626e+00 1.471529e+01 0.000000e+00
      endloop
   endfacet
   facet normal 0.000000e+00 0.000000e+00 -1.000000e+00
      outer loop
         vertex -1.149067e+00 9.641814e-01 0.000000e+00
         vertex -1.163291e+01 9.469714e+00 0.000000e+00
         vertex -9.158168e+00 1.187973e+01 0.000000e+00
      endloop
   endfacet
   facet normal 0.000000e+00 0.000000e+00 -1.000000e+00
      outer loop
         vertex -1.098060e+01 -5.123377e-01 0.000000e+00
         vertex -1.463306e+01 3.297497e+00 0.000000e+00
         vertex -1.349071e+01 6.557488e+00 0.000000e+00
      endloop
   endfacet
   facet normal 0.000000e+00 0.000000e+00 -1.000000e+00
      outer loop
         vertex -1.280550e+01 -2.461015e+00 0.000000e+00
         vertex -1.457021e+01 -3.564956e+00 0.000000e+00
         vertex -1.499937e+01 -1.373722e-01 0.000000e+00
      endloop
   endfacet
   facet normal 0.000000e+00 0.000000e+00 -1.000000e+00
      outer loop
         vertex -1.169275e+01 -5.772084e+00 0.000000e+00
         vertex -1.145751e+01 -9.681189e+00 0.000000e+00
         vertex -1.336835e+01 -6.803478e+00 0.000000e+00
      endloop
   endfacet
   facet normal 0.000000e+00 0.000000e+00 -1.000000e+00
      outer loop
         vertex -7.846031e+00 -9.083255e+00 0.000000e+00
         vertex -5.946516e+00 -1.377095e+01 0.000000e+00
         vertex -8.939048e+00 -1.204547e+01 0.000000e+00
      endloop
   endfacet
   facet normal 0.000000e+00 0.000000e+00 -1.000000e+00
      outer loop
         vertex 3.468185e+00 -1.096813e+01 0.000000e+00
         vertex 3.143706e+00 -1.579937e+01 0.000000e+00
         vertex -2.638619e+00 -1.476610e+01 0.000000e+00
      endloop
   endfacet
   facet normal -0.000000e+00 0.000000e+00 -1.000000e+00
      outer loop
         vertex 7.467692e+00 -9.300282e+00 0.000000e+00
         vertex 1.151181e+01 -1.546966e+01 0.000000e+00
         vertex 7.289273e+00 -1.608700e+01 0.000000e+00
      endloop
   endfacet
   facet normal -0.000000e+00 0.000000e+00 -1.000000e+00
      outer loop
         vertex 9.668630e+00 -6.984216e+00 0.000000e+00
         vertex 1.981800e+01 -1.143403e+01 0.000000e+00
         vertex 1.572874e+01 -1.392155e+01 0.000000e+00
      endloop
   endfacet
   facet normal -0.000000e+00 0.000000e+00 -1.000000e+00
      outer loop
         vertex 1.392367e+01 5.579557e+00 0.000000e+00
         vertex 2.601756e+01 -5.100468e+00 0.000000e+00
         vertex 2.360257e+01 -8.044397e+00 0.000000e+00
      endloop
   endfacet
   facet normal -0.000000e+00 0.000000e+00 -1.000000e+00
      outer loop
         vertex 1.392367e+01 5.579557e+00 0.000000e+00
         vertex 2.679192e+01 -3.967171e+00 0.000000e+00
         vertex 2.628173e+01 -4.726638e+00 0.000000e+00
      endloop
   endfacet
   facet normal -0.000000e+00 0.000000e+00 -1.000000e+00
      outer loop
         vertex 1.392367e+01 5.579557e+00 0.000000e+00
         vertex 2.925281e+01 8.684773e-01 0.000000e+00
         vertex 2.773356e+01 -2.404460e+00 0.000000e+00
      endloop
   endfacet
   facet normal 0.000000e+00 -0.000000e+00 -1.000000e+00
      outer loop
         vertex 1.392367e+01 5.579557e+00 0.000000e+00
         vertex 3.031912e+01 9.225528e+00 0.000000e+00
         vertex 3.033027e+01 5.199823e+00 0.000000e+00
      endloop
   endfacet
   facet normal 0.000000e+00 0.000000e+00 -1.000000e+00
      outer loop
         vertex 3.031912e+01 9.225528e+00 0.000000e+00
         vertex 1.392367e+01 5.579557e+00 0.000000e+00
         vertex 2.970383e+01 1.190306e+01 0.000000e+00
      endloop
   endfacet
   facet normal 0.000000e+00 0.000000e+00 -1.000000e+00
      outer loop
         vertex -5.946516e+00 -1.377095e+01 0.000000e+00
         vertex -7.846031e+00 -9.083255e+00 0.000000e+00
         vertex -7.084257e+00 -8.405314e+00 0.000000e+00
      endloop
   endfacet
   facet normal 0.000000e+00 -0.000000e+00 -1.000000e+00
      outer loop
         vertex -1.145751e+01 -9.681189e+00 0.000000e+00
         vertex -9.740962e+00 -8.668965e+00 0.000000e+00
         vertex -8.860802e+00 -9.183960e+00 0.000000e+00
      endloop
   endfacet
   facet normal 0.000000e+00 -0.000000e+00 -1.000000e+00
      outer loop
         vertex -1.457021e+01 -3.564956e+00 0.000000e+00
         vertex -1.280550e+01 -2.461015e+00 0.000000e+00
         vertex -1.169275e+01 -5.772084e+00 0.000000e+00
      endloop
   endfacet
   facet normal -0.000000e+00 0.000000e+00 -1.000000e+00
      outer loop
         vertex -1.499937e+01 -1.373722e-01 0.000000e+00
         vertex -1.198203e+01 -7.047968e-01 0.000000e+00
         vertex -1.267908e+01 -1.449125e+00 0.000000e+00
      endloop
   endfacet
   facet normal 0.000000e+00 0.000000e+00 -1.000000e+00
      outer loop
         vertex -1.349071e+01 6.557488e+00 0.000000e+00
         vertex -1.005730e+01 -9.452608e-01 0.000000e+00
         vertex -1.098060e+01 -5.123377e-01 0.000000e+00
      endloop
   endfacet
   facet normal 0.000000e+00 0.000000e+00 -1.000000e+00
      outer loop
         vertex -1.500000e+00 -6.921730e-15 0.000000e+00
         vertex -8.733656e+00 -4.311339e+00 0.000000e+00
         vertex -9.564800e+00 -1.838204e+00 0.000000e+00
      endloop
   endfacet
   facet normal 0.000000e+00 0.000000e+00 -1.000000e+00
      outer loop
         vertex 1.151181e+01 -1.546966e+01 0.000000e+00
         vertex 7.467692e+00 -9.300282e+00 0.000000e+00
         vertex 9.668630e+00 -6.984216e+00 0.000000e+00
      endloop
   endfacet
   facet normal 0.000000e+00 -0.000000e+00 -1.000000e+00
      outer loop
         vertex 3.143706e+00 -1.579937e+01 0.000000e+00
         vertex 3.468185e+00 -1.096813e+01 0.000000e+00
         vertex 4.730895e+00 -1.094899e+01 0.000000e+00
      endloop
   endfacet
   facet normal -0.000000e+00 -0.000000e+00 -1.000000e+00
      outer loop
         vertex -7.084257e+00 -8.405314e+00 0.000000e+00
         vertex 2.542638e+00 -8.826081e+00 0.000000e+00
         vertex 2.561779e+00 -1.008879e+01 0.000000e+00
      endloop
   endfacet
   facet normal -0.000000e+00 0.000000e+00 -1.000000e+00
      outer loop
         vertex 7.500000e-01 -1.299038e+00 0.000000e+00
         vertex 5.401568e+00 -6.727126e+00 0.000000e+00
         vertex 3.421974e+00 -7.919675e+00 0.000000e+00
      endloop
   endfacet
   facet normal -0.000000e+00 0.000000e+00 -1.000000e+00
      outer loop
         vertex 1.409539e+00 -5.130302e-01 0.000000e+00
         vertex 7.816914e+00 -4.450199e+00 0.000000e+00
         vertex 6.993561e+00 -5.051857e+00 0.000000e+00
      endloop
   endfacet
   facet normal 0.000000e+00 0.000000e+00 -1.000000e+00
      outer loop
         vertex 1.392367e+01 5.579557e+00 0.000000e+00
         vertex 9.663307e+00 -5.044532e+00 0.000000e+00
         vertex 8.836666e+00 -4.447400e+00 0.000000e+00
      endloop
   endfacet
   facet normal 0.000000e+00 0.000000e+00 -1.000000e+00
      outer loop
         vertex 1.981800e+01 -1.143403e+01 0.000000e+00
         vertex 9.668630e+00 -6.984216e+00 0.000000e+00
         vertex 9.981090e+00 -6.013509e+00 0.000000e+00
      endloop
   endfacet
   facet normal -0.000000e+00 0.000000e+00 -1.000000e+00
      outer loop
         vertex -6.197740e+00 1.365972e+01 0.000000e+00
         vertex -2.604723e-01 1.477212e+00 0.000000e+00
         vertex -1.149067e+00 9.641814e-01 0.000000e+00
      endloop
   endfacet
   facet normal 0.000000e+00 0.000000e+00 -1.000000e+00
      outer loop
         vertex 1.227809e+01 8.616756e+00 0.000000e+00
         vertex 1.409539e+00 5.130302e-01 0.000000e+00
         vertex 7.500000e-01 1.299038e+00 0.000000e+00
      endloop
   endfacet
   facet normal 0.000000e+00 0.000000e+00 -1.000000e+00
      outer loop
         vertex 6.993561e+00 -5.051857e+00 0.000000e+00
         vertex 7.500000e-01 -1.299038e+00 0.000000e+00
         vertex 1.409539e+00 -5.130302e-01 0.000000e+00
      endloop
   endfacet
   facet normal 0.000000e+00 -0.000000e+00 -1.000000e+00
      outer loop
         vertex -7.275811e+00 -6.475104e+00 0.000000e+00
         vertex -1.149067e+00 -9.641814e-01 0.000000e+00
         vertex -2.604723e-01 -1.477212e+00 0.000000e+00
      endloop
   endfacet
   facet normal 0.000000e+00 0.000000e+00 -1.000000e+00
      outer loop
         vertex 7.816914e+00 -4.450199e+00 0.000000e+00
         vertex 1.409539e+00 5.130302e-01 0.000000e+00
         vertex 1.392367e+01 5.579557e+00 0.000000e+00
      endloop
   endfacet
   facet normal -0.000000e+00 0.000000e+00 -1.000000e+00
      outer loop
         vertex 3.949752e+00 1.447064e+01 0.000000e+00
         vertex 7.155293e+00 1.318339e+01 0.000000e+00
         vertex 7.500000e-01 1.299038e+00 0.000000e+00
      endloop
   endfacet
   facet normal 0.000000e+00 0.000000e+00 -1.000000e+00
      outer loop
         vertex 5.347429e-01 1.499047e+01 0.000000e+00
         vertex -2.604723e-01 1.477212e+00 0.000000e+00
         vertex -2.908626e+00 1.471529e+01 0.000000e+00
      endloop
   endfacet
   facet normal 0.000000e+00 0.000000e+00 -1.000000e+00
      outer loop
         vertex -1.267908e+01 -1.449125e+00 0.000000e+00
         vertex -1.280550e+01 -2.461015e+00 0.000000e+00
         vertex -1.499937e+01 -1.373722e-01 0.000000e+00
      endloop
   endfacet
   facet normal 0.000000e+00 0.000000e+00 -1.000000e+00
      outer loop
         vertex -8.860802e+00 -9.183960e+00 0.000000e+00
         vertex -7.846031e+00 -9.083255e+00 0.000000e+00
         vertex -8.939048e+00 -1.204547e+01 0.000000e+00
      endloop
   endfacet
   facet normal 0.000000e+00 0.000000e+00 -1.000000e+00
      outer loop
         vertex 1.151181e+01 -1.546966e+01 0.000000e+00
         vertex 9.668630e+00 -6.984216e+00 0.000000e+00
         vertex 1.572874e+01 -1.392155e+01 0.000000e+00
      endloop
   endfacet
   facet normal 0.000000e+00 0.000000e+00 -1.000000e+00
      outer loop
         vertex 2.601756e+01 -5.100468e+00 0.000000e+00
         vertex 1.392367e+01 5.579557e+00 0.000000e+00
         vertex 2.628173e+01 -4.726638e+00 0.000000e+00
      endloop
   endfacet
   facet normal 0.000000e+00 0.000000e+00 -1.000000e+00
      outer loop
         vertex 2.925281e+01 8.684773e-01 0.000000e+00
         vertex 1.392367e+01 5.579557e+00 0.000000e+00
         vertex 3.033027e+01 5.199823e+00 0.000000e+00
      endloop
   endfacet
   facet normal 0.000000e+00 0.000000e+00 -1.000000e+00
      outer loop
         vertex -1.336835e+01 -6.803478e+00 0.000000e+00
         vertex -1.457021e+01 -3.564956e+00 0.000000e+00
         vertex -1.169275e+01 -5.772084e+00 0.000000e+00
      endloop
   endfacet
   facet normal 0.000000e+00 0.000000e+00 -1.000000e+00
      outer loop
         vertex -1.149067e+00 -9.641814e-01 0.000000e+00
         vertex -8.733656e+00 -4.311339e+00 0.000000e+00
         vertex -1.500000e+00 -6.921730e-15 0.000000e+00
      endloop
   endfacet
   facet normal 0.000000e+00 0.000000e+00 -1.000000e+00
      outer loop
         vertex -6.866452e+00 -7.409090e+00 0.000000e+00
         vertex 2.542638e+00 -8.826081e+00 0.000000e+00
         vertex -7.084257e+00 -8.405314e+00 0.000000e+00
      endloop
   endfacet
   facet normal 0.000000e+00 0.000000e+00 -1.000000e+00
      outer loop
         vertex 1.409539e+00 5.130302e-01 0.000000e+00
         vertex 7.816914e+00 -4.450199e+00 0.000000e+00
         vertex 1.409539e+00 -5.130302e-01 0.000000e+00
      endloop
   endfacet
   facet normal 0.000000e+00 0.000000e+00 -1.000000e+00
      outer loop
         vertex 2.360257e+01 -8.044397e+00 0.000000e+00
         vertex 1.981800e+01 -1.143403e+01 0.000000e+00
         vertex 9.981090e+00 -6.013509e+00 0.000000e+00
      endloop
   endfacet
   facet normal 0.000000e+00 0.000000e+00 -1.000000e+00
      outer loop
         vertex 5.401568e+00 -6.727126e+00 0.000000e+00
         vertex 7.500000e-01 -1.299038e+00 0.000000e+00
         vertex 6.993561e+00 -5.051857e+00 0.000000e+00
      endloop
   endfacet
   facet normal 0.000000e+00 0.000000e+00 -1.000000e+00
      outer loop
         vertex -2.604723e-01 1.477212e+00 0.000000e+00
         vertex 3.949752e+00 1.447064e+01 0.000000e+00
         vertex 7.500000e-01 1.299038e+00 0.000000e+00
      endloop
   endfacet
   facet normal 0.000000e+00 0.000000e+00 -1.000000e+00
      outer loop
         vertex 9.663307e+00 -5.044532e+00 0.000000e+00
         vertex 2.360257e+01 -8.044397e+00 0.000000e+00
         vertex 9.981090e+00 -6.013509e+00 0.000000e+00
      endloop
   endfacet
   facet normal 0.000000e+00 -0.000000e+00 -1.000000e+00
      outer loop
         vertex 7.500000e-01 1.299038e+00 0.000000e+00
         vertex 9.981364e+00 1.119698e+01 0.000000e+00
         vertex 1.227809e+01 8.616756e+00 0.000000e+00
      endloop
   endfacet
   facet normal 0.000000e+00 0.000000e+00 -1.000000e+00
      outer loop
         vertex -1.005730e+01 -9.452608e-01 0.000000e+00
         vertex -1.349071e+01 6.557488e+00 0.000000e+00
         vertex -1.163291e+01 9.469714e+00 0.000000e+00
      endloop
   endfacet
   facet normal 0.000000e+00 0.000000e+00 -1.000000e+00
      outer loop
         vertex -8.860802e+00 -9.183960e+00 0.000000e+00
         vertex -8.939048e+00 -1.204547e+01 0.000000e+00
         vertex -1.145751e+01 -9.681189e+00 0.000000e+00
      endloop
   endfacet
   facet normal 0.000000e+00 0.000000e+00 -1.000000e+00
      outer loop
         vertex 4.730895e+00 -1.094899e+01 0.000000e+00
         vertex 7.289273e+00 -1.608700e+01 0.000000e+00
         vertex 3.143706e+00 -1.579937e+01 0.000000e+00
      endloop
   endfacet
   facet normal 0.000000e+00 0.000000e+00 -1.000000e+00
      outer loop
         vertex -2.604723e-01 -1.477212e+00 0.000000e+00
         vertex -6.866452e+00 -7.409090e+00 0.000000e+00
         vertex -7.275811e+00 -6.475104e+00 0.000000e+00
      endloop
   endfacet
   facet normal -0.000000e+00 0.000000e+00 -1.000000e+00
      outer loop
         vertex -1.463306e+01 3.297497e+00 0.000000e+00
         vertex -1.098060e+01 -5.123377e-01 0.000000e+00
         vertex -1.198203e+01 -7.047968e-01 0.000000e+00
      endloop
   endfacet
   facet normal 0.000000e+00 0.000000e+00 -1.000000e+00
      outer loop
         vertex -1.149067e+00 -9.641814e-01 0.000000e+00
         vertex -7.275811e+00 -6.475104e+00 0.000000e+00
         vertex -8.733656e+00 -4.311339e+00 0.000000e+00
      endloop
   endfacet
   facet normal 0.000000e+00 -0.000000e+00 -1.000000e+00
      outer loop
         vertex -2.638619e+00 -1.476610e+01 0.000000e+00
         vertex 2.561779e+00 -1.008879e+01 0.000000e+00
         vertex 3.468185e+00 -1.096813e+01 0.000000e+00
      endloop
   endfacet
   facet normal -0.000000e+00 0.000000e+00 -1.000000e+00
      outer loop
         vertex 1.392367e+01 5.579557e+00 0.000000e+00
         vertex 8.836666e+00 -4.447400e+00 0.000000e+00
         vertex 7.816914e+00 -4.450199e+00 0.000000e+00
      endloop
   endfacet
   facet normal 0.000000e+00 0.000000e+00 -1.000000e+00
      outer loop
         vertex 3.421974e+00 -7.919675e+00 0.000000e+00
         vertex -2.604723e-01 -1.477212e+00 0.000000e+00
         vertex 7.500000e-01 -1.299038e+00 0.000000e+00
      endloop
   endfacet
   facet normal 0.000000e+00 0.000000e+00 -1.000000e+00
      outer loop
         vertex -1.005730e+01 -9.452608e-01 0.000000e+00
         vertex -1.163291e+01 9.469714e+00 0.000000e+00
         vertex -1.149067e+00 9.641814e-01 0.000000e+00
      endloop
   endfacet
   facet normal 0.000000e+00 0.000000e+00 -1.000000e+00
      outer loop
         vertex 4.730895e+00 -1.094899e+01 0.000000e+00
         vertex 7.467692e+00 -9.300282e+00 0.000000e+00
         vertex 7.289273e+00 -1.608700e+01 0.000000e+00
      endloop
   endfacet
   facet normal 0.000000e+00 0.000000e+00 -1.000000e+00
      outer loop
         vertex 2.679192e+01 -3.967171e+00 0.000000e+00
         vertex 1.392367e+01 5.579557e+00 0.000000e+00
         vertex 2.773356e+01 -2.404460e+00 0.000000e+00
      endloop
   endfacet
   facet normal 0.000000e+00 0.000000e+00 -1.000000e+00
      outer loop
         vertex -1.005730e+01 -9.452608e-01 0.000000e+00
         vertex -1.500000e+00 -6.921730e-15 0.000000e+00
         vertex -9.564800e+00 -1.838204e+00 0.000000e+00
      endloop
   endfacet
   facet normal 0.000000e+00 -0.000000e+00 -1.000000e+00
      outer loop
         vertex -9.158168e+00 1.187973e+01 0.000000e+00
         vertex -6.197740e+00 1.365972e+01 0.000000e+00
         vertex -1.149067e+00 9.641814e-01 0.000000e+00
      endloop
   endfacet
   facet normal 0.000000e+00 -0.000000e+00 -1.000000e+00
      outer loop
         vertex -1.499937e+01 -1.373722e-01 0.000000e+00
         vertex -1.463306e+01 3.297497e+00 0.000000e+00
         vertex -1.198203e+01 -7.047968e-01 0.000000e+00
      endloop
   endfacet
   facet normal -0.000000e+00 0.000000e+00 -1.000000e+00
      outer loop
         vertex -1.149067e+00 9.641814e-01 0.000000e+00
         vertex -1.500000e+00 -6.921730e-15 0.000000e+00
         vertex -1.005730e+01 -9.452608e-01 0.000000e+00
      endloop
   endfacet
   facet normal 0.000000e+00 0.000000e+00 -1.000000e+00
      outer loop
         vertex -7.084257e+00 -8.405314e+00 0.000000e+00
         vertex -2.638619e+00 -1.476610e+01 0.000000e+00
         vertex -5.946516e+00 -1.377095e+01 0.000000e+00
      endloop
   endfacet
   facet normal -0.000000e+00 0.000000e+00 -1.000000e+00
      outer loop
         vertex -2.604723e-01 -1.477212e+00 0.000000e+00
         vertex 3.421974e+00 -7.919675e+00 0.000000e+00
         vertex 2.542638e+00 -8.826081e+00 0.000000e+00
      endloop
   endfacet
   facet normal 0.000000e+00 -0.000000e+00 -1.000000e+00
      outer loop
         vertex 9.663307e+00 -5.044532e+00 0.000000e+00
         vertex 1.392367e+01 5.579557e+00 0.000000e+00
         vertex 2.360257e+01 -8.044397e+00 0.000000e+00
      endloop
   endfacet
   facet normal 0.000000e+00 0.000000e+00 -1.000000e+00
      outer loop
         vertex -2.638619e+00 -1.476610e+01 0.000000e+00
         vertex -7.084257e+00 -8.405314e+00 0.000000e+00
         vertex 2.561779e+00 -1.008879e+01 0.000000e+00
      endloop
   endfacet
   facet normal 0.000000e+00 0.000000e+00 -1.000000e+00
      outer loop
         vertex 2.542638e+00 -8.826081e+00 0.000000e+00
         vertex -6.866452e+00 -7.409090e+00 0.000000e+00
         vertex -2.604723e-01 -1.477212e+00 0.000000e+00
      endloop
   endfacet
   facet normal 0.000000e+00 0.000000e+00 -1.000000e+00
      outer loop
         vertex -1.145751e+01 -9.681189e+00 0.000000e+00
         vertex -1.169275e+01 -5.772084e+00 0.000000e+00
         vertex -9.740962e+00 -8.668965e+00 0.000000e+00
      endloop
   endfacet
   facet normal 0.000000e+00 0.000000e+00 1.000000e+00
      outer loop
         vertex 2.970383e+01 1.190306e+01 2.600000e+00
         vertex 1.392367e+01 5.579557e+00 2.600000e+00
         vertex 3.031912e+01 9.225528e+00 2.600000e+00
      endloop
   endfacet
   facet normal 0.000000e+00 0.000000e+00 1.000000e+00
      outer loop
         vertex 1.227809e+01 8.616756e+00 2.600000e+00
         vertex 9.981364e+00 1.119698e+01 2.600000e+00
         vertex 7.500000e-01 1.299038e+00 2.600000e+00
      endloop
   endfacet
   facet normal 0.000000e+00 0.000000e+00 1.000000e+00
      outer loop
         vertex 7.155293e+00 1.318339e+01 2.600000e+00
         vertex 3.949752e+00 1.447064e+01 2.600000e+00
         vertex 7.500000e-01 1.299038e+00 2.600000e+00
      endloop
   endfacet
   facet normal -0.000000e+00 0.000000e+00 1.000000e+00
      outer loop
         vertex 5.347429e-01 1.499047e+01 2.600000e+00
         vertex -2.908626e+00 1.471529e+01 2.600000e+00
         vertex -2.604723e-01 1.477212e+00 2.600000e+00
      endloop
   endfacet
   facet normal -0.000000e+00 0.000000e+00 1.000000e+00
      outer loop
         vertex -6.197740e+00 1.365972e+01 2.600000e+00
         vertex -9.158168e+00 1.187973e+01 2.600000e+00
         vertex -1.149067e+00 9.641814e-01 2.600000e+00
      endloop
   endfacet
   facet normal -0.000000e+00 0.000000e+00 1.000000e+00
      outer loop
         vertex -1.163291e+01 9.469714e+00 2.600000e+00
         vertex -1.349071e+01 6.557488e+00 2.600000e+00
         vertex -1.005730e+01 -9.452608e-01 2.600000e+00
      endloop
   endfacet
   facet normal -0.000000e+00 0.000000e+00 1.000000e+00
      outer loop
         vertex -1.463306e+01 3.297497e+00 2.600000e+00
         vertex -1.499937e+01 -1.373722e-01 2.600000e+00
         vertex -1.198203e+01 -7.047968e-01 2.600000e+00
      endloop
   endfacet
   facet normal 0.000000e+00 -0.000000e+00 1.000000e+00
      outer loop
         vertex -1.457021e+01 -3.564956e+00 2.600000e+00
         vertex -1.336835e+01 -6.803478e+00 2.600000e+00
         vertex -1.169275e+01 -5.772084e+00 2.600000e+00
      endloop
   endfacet
   facet normal 0.000000e+00 -0.000000e+00 1.000000e+00
      outer loop
         vertex -1.145751e+01 -9.681189e+00 2.600000e+00
         vertex -8.939048e+00 -1.204547e+01 2.600000e+00
         vertex -8.860802e+00 -9.183960e+00 2.600000e+00
      endloop
   endfacet
   facet normal 0.000000e+00 0.000000e+00 1.000000e+00
      outer loop
         vertex -5.946516e+00 -1.377095e+01 2.600000e+00
         vertex -2.638619e+00 -1.476610e+01 2.600000e+00
         vertex -7.084257e+00 -8.405314e+00 2.600000e+00
      endloop
   endfacet
   facet normal 0.000000e+00 0.000000e+00 1.000000e+00
      outer loop
         vertex 3.143706e+00 -1.579937e+01 2.600000e+00
         vertex 7.289273e+00 -1.608700e+01 2.600000e+00
         vertex 4.730895e+00 -1.094899e+01 2.600000e+00
      endloop
   endfacet
   facet normal 0.000000e+00 0.000000e+00 1.000000e+00
      outer loop
         vertex 1.151181e+01 -1.546966e+01 2.600000e+00
         vertex 1.572874e+01 -1.392155e+01 2.600000e+00
         vertex 9.668630e+00 -6.984216e+00 2.600000e+00
      endloop
   endfacet
   facet normal 0.000000e+00 0.000000e+00 1.000000e+00
      outer loop
         vertex 1.981800e+01 -1.143403e+01 2.600000e+00
         vertex 2.360257e+01 -8.044397e+00 2.600000e+00
         vertex 9.981090e+00 -6.013509e+00 2.600000e+00
      endloop
   endfacet
   facet normal 0.000000e+00 0.000000e+00 1.000000e+00
      outer loop
         vertex 2.601756e+01 -5.100468e+00 2.600000e+00
         vertex 2.628173e+01 -4.726638e+00 2.600000e+00
         vertex 1.392367e+01 5.579557e+00 2.600000e+00
      endloop
   endfacet
   facet normal 0.000000e+00 0.000000e+00 1.000000e+00
      outer loop
         vertex 2.679192e+01 -3.967171e+00 2.600000e+00
         vertex 2.773356e+01 -2.404460e+00 2.600000e+00
         vertex 1.392367e+01 5.579557e+00 2.600000e+00
      endloop
   endfacet
   facet normal 0.000000e+00 0.000000e+00 1.000000e+00
      outer loop
         vertex 2.925281e+01 8.684773e-01 2.600000e+00
         vertex 3.033027e+01 5.199823e+00 2.600000e+00
         vertex 1.392367e+01 5.579557e+00 2.600000e+00
      endloop
   endfacet
   facet normal 0.000000e+00 -0.000000e+00 1.000000e+00
      outer loop
         vertex -1.005730e+01 -9.452608e-01 2.600000e+00
         vertex -9.564800e+00 -1.838204e+00 2.600000e+00
         vertex -1.500000e+00 -6.921730e-15 2.600000e+00
      endloop
   endfacet
   facet normal 0.000000e+00 -0.000000e+00 1.000000e+00
      outer loop
         vertex -8.733656e+00 -4.311339e+00 2.600000e+00
         vertex -7.275811e+00 -6.475104e+00 2.600000e+00
         vertex -1.149067e+00 -9.641814e-01 2.600000e+00
      endloop
   endfacet
   facet normal -0.000000e+00 0.000000e+00 1.000000e+00
      outer loop
         vertex -6.866452e+00 -7.409090e+00 2.600000e+00
         vertex -7.084257e+00 -8.405314e+00 2.600000e+00
         vertex 2.542638e+00 -8.826081e+00 2.600000e+00
      endloop
   endfacet
   facet normal -0.000000e+00 0.000000e+00 1.000000e+00
      outer loop
         vertex -7.846031e+00 -9.083255e+00 2.600000e+00
         vertex -8.860802e+00 -9.183960e+00 2.600000e+00
         vertex -8.939048e+00 -1.204547e+01 2.600000e+00
      endloop
   endfacet
   facet normal 0.000000e+00 0.000000e+00 1.000000e+00
      outer loop
         vertex -9.740962e+00 -8.668965e+00 2.600000e+00
         vertex -1.169275e+01 -5.772084e+00 2.600000e+00
         vertex -1.145751e+01 -9.681189e+00 2.600000e+00
      endloop
   endfacet
   facet normal 0.000000e+00 0.000000e+00 1.000000e+00
      outer loop
         vertex -1.280550e+01 -2.461015e+00 2.600000e+00
         vertex -1.267908e+01 -1.449125e+00 2.600000e+00
         vertex -1.499937e+01 -1.373722e-01 2.600000e+00
      endloop
   endfacet
   facet normal 0.000000e+00 0.000000e+00 1.000000e+00
      outer loop
         vertex -1.198203e+01 -7.047968e-01 2.600000e+00
         vertex -1.098060e+01 -5.123377e-01 2.600000e+00
         vertex -1.463306e+01 3.297497e+00 2.600000e+00
      endloop
   endfacet
   facet normal 0.000000e+00 0.000000e+00 1.000000e+00
      outer loop
         vertex 5.401568e+00 -6.727126e+00 2.600000e+00
         vertex 6.993561e+00 -5.051857e+00 2.600000e+00
         vertex 7.500000e-01 -1.299038e+00 2.600000e+00
      endloop
   endfacet
   facet normal 0.000000e+00 -0.000000e+00 1.000000e+00
      outer loop
         vertex 7.816914e+00 -4.450199e+00 2.600000e+00
         vertex 8.836666e+00 -4.447400e+00 2.600000e+00
         vertex 1.392367e+01 5.579557e+00 2.600000e+00
      endloop
   endfacet
   facet normal -0.000000e+00 -0.000000e+00 1.000000e+00
      outer loop
         vertex 9.663307e+00 -5.044532e+00 2.600000e+00
         vertex 9.981090e+00 -6.013509e+00 2.600000e+00
         vertex 2.360257e+01 -8.044397e+00 2.600000e+00
      endloop
   endfacet
   facet normal -0.000000e+00 0.000000e+00 1.000000e+00
      outer loop
         vertex 9.668630e+00 -6.984216e+00 2.600000e+00
         vertex 7.467692e+00 -9.300282e+00 2.600000e+00
         vertex 1.151181e+01 -1.546966e+01 2.600000e+00
      endloop
   endfacet
   facet normal -0.000000e+00 0.000000e+00 1.000000e+00
      outer loop
         vertex 4.730895e+00 -1.094899e+01 2.600000e+00
         vertex 3.468185e+00 -1.096813e+01 2.600000e+00
         vertex 3.143706e+00 -1.579937e+01 2.600000e+00
      endloop
   endfacet
   facet normal 0.000000e+00 0.000000e+00 1.000000e+00
      outer loop
         vertex 2.561779e+00 -1.008879e+01 2.600000e+00
         vertex 2.542638e+00 -8.826081e+00 2.600000e+00
         vertex -7.084257e+00 -8.405314e+00 2.600000e+00
      endloop
   endfacet
   facet normal 0.000000e+00 0.000000e+00 1.000000e+00
      outer loop
         vertex 3.421974e+00 -7.919675e+00 2.600000e+00
         vertex 5.401568e+00 -6.727126e+00 2.600000e+00
         vertex 7.500000e-01 -1.299038e+00 2.600000e+00
      endloop
   endfacet
   facet normal 0.000000e+00 0.000000e+00 1.000000e+00
      outer loop
         vertex -1.500000e+00 -6.921730e-15 2.600000e+00
         vertex -1.149067e+00 9.641814e-01 2.600000e+00
         vertex -1.005730e+01 -9.452608e-01 2.600000e+00
      endloop
   endfacet
   facet normal 0.000000e+00 -0.000000e+00 1.000000e+00
      outer loop
         vertex -2.604723e-01 1.477212e+00 2.600000e+00
         vertex 7.500000e-01 1.299038e+00 2.600000e+00
         vertex 3.949752e+00 1.447064e+01 2.600000e+00
      endloop
   endfacet
   facet normal -0.000000e+00 0.000000e+00 1.000000e+00
      outer loop
         vertex 1.409539e+00 5.130302e-01 2.600000e+00
         vertex 1.409539e+00 -5.130302e-01 2.600000e+00
         vertex 7.816914e+00 -4.450199e+00 2.600000e+00
      endloop
   endfacet
   facet normal -0.000000e+00 0.000000e+00 1.000000e+00
      outer loop
         vertex 7.500000e-01 -1.299038e+00 2.600000e+00
         vertex -2.604723e-01 -1.477212e+00 2.600000e+00
         vertex 3.421974e+00 -7.919675e+00 2.600000e+00
      endloop
   endfacet
   facet normal -0.000000e+00 0.000000e+00 1.000000e+00
      outer loop
         vertex 3.031912e+01 9.225528e+00 2.600000e+00
         vertex 1.392367e+01 5.579557e+00 2.600000e+00
         vertex 3.033027e+01 5.199823e+00 2.600000e+00
      endloop
   endfacet
   facet normal 0.000000e+00 0.000000e+00 1.000000e+00
      outer loop
         vertex 7.155293e+00 1.318339e+01 2.600000e+00
         vertex 7.500000e-01 1.299038e+00 2.600000e+00
         vertex 9.981364e+00 1.119698e+01 2.600000e+00
      endloop
   endfacet
   facet normal 0.000000e+00 0.000000e+00 1.000000e+00
      outer loop
         vertex -1.149067e+00 9.641814e-01 2.600000e+00
         vertex -9.158168e+00 1.187973e+01 2.600000e+00
         vertex -1.163291e+01 9.469714e+00 2.600000e+00
      endloop
   endfacet
   facet normal 0.000000e+00 0.000000e+00 1.000000e+00
      outer loop
         vertex -1.198203e+01 -7.047968e-01 2.600000e+00
         vertex -1.499937e+01 -1.373722e-01 2.600000e+00
         vertex -1.267908e+01 -1.449125e+00 2.600000e+00
      endloop
   endfacet
   facet normal 0.000000e+00 0.000000e+00 1.000000e+00
      outer loop
         vertex -1.145751e+01 -9.681189e+00 2.600000e+00
         vertex -8.860802e+00 -9.183960e+00 2.600000e+00
         vertex -9.740962e+00 -8.668965e+00 2.600000e+00
      endloop
   endfacet
   facet normal 0.000000e+00 -0.000000e+00 1.000000e+00
      outer loop
         vertex 4.730895e+00 -1.094899e+01 2.600000e+00
         vertex 7.289273e+00 -1.608700e+01 2.600000e+00
         vertex 7.467692e+00 -9.300282e+00 2.600000e+00
      endloop
   endfacet
   facet normal 0.000000e+00 0.000000e+00 1.000000e+00
      outer loop
         vertex 2.601756e+01 -5.100468e+00 2.600000e+00
         vertex 1.392367e+01 5.579557e+00 2.600000e+00
         vertex 2.360257e+01 -8.044397e+00 2.600000e+00
      endloop
   endfacet
   facet normal 0.000000e+00 -0.000000e+00 1.000000e+00
      outer loop
         vertex 1.392367e+01 5.579557e+00 2.600000e+00
         vertex 2.773356e+01 -2.404460e+00 2.600000e+00
         vertex 2.925281e+01 8.684773e-01 2.600000e+00
      endloop
   endfacet
   facet normal 0.000000e+00 0.000000e+00 1.000000e+00
      outer loop
         vertex -1.149067e+00 -9.641814e-01 2.600000e+00
         vertex -7.275811e+00 -6.475104e+00 2.600000e+00
         vertex -2.604723e-01 -1.477212e+00 2.600000e+00
      endloop
   endfacet
   facet normal 0.000000e+00 0.000000e+00 1.000000e+00
      outer loop
         vertex -1.145751e+01 -9.681189e+00 2.600000e+00
         vertex -1.169275e+01 -5.772084e+00 2.600000e+00
         vertex -1.336835e+01 -6.803478e+00 2.600000e+00
      endloop
   endfacet
   facet normal 0.000000e+00 0.000000e+00 1.000000e+00
      outer loop
         vertex 7.816914e+00 -4.450199e+00 2.600000e+00
         vertex 1.392367e+01 5.579557e+00 2.600000e+00
         vertex 1.409539e+00 5.130302e-01 2.600000e+00
      endloop
   endfacet
   facet normal 0.000000e+00 0.000000e+00 1.000000e+00
      outer loop
         vertex 9.663307e+00 -5.044532e+00 2.600000e+00
         vertex 2.360257e+01 -8.044397e+00 2.600000e+00
         vertex 1.392367e+01 5.579557e+00 2.600000e+00
      endloop
   endfacet
   facet normal 0.000000e+00 0.000000e+00 1.000000e+00
      outer loop
         vertex 3.143706e+00 -1.579937e+01 2.600000e+00
         vertex 3.468185e+00 -1.096813e+01 2.600000e+00
         vertex -2.638619e+00 -1.476610e+01 2.600000e+00
      endloop
   endfacet
   facet normal 0.000000e+00 0.000000e+00 1.000000e+00
      outer loop
         vertex -2.604723e-01 1.477212e+00 2.600000e+00
         vertex 3.949752e+00 1.447064e+01 2.600000e+00
         vertex 5.347429e-01 1.499047e+01 2.600000e+00
      endloop
   endfacet
   facet normal 0.000000e+00 0.000000e+00 1.000000e+00
      outer loop
         vertex 7.467692e+00 -9.300282e+00 2.600000e+00
         vertex 7.289273e+00 -1.608700e+01 2.600000e+00
         vertex 1.151181e+01 -1.546966e+01 2.600000e+00
      endloop
   endfacet
   facet normal 0.000000e+00 0.000000e+00 1.000000e+00
      outer loop
         vertex -2.638619e+00 -1.476610e+01 2.600000e+00
         vertex 3.468185e+00 -1.096813e+01 2.600000e+00
         vertex 2.561779e+00 -1.008879e+01 2.600000e+00
      endloop
   endfacet
   facet normal 0.000000e+00 0.000000e+00 1.000000e+00
      outer loop
         vertex 1.392367e+01 5.579557e+00 2.600000e+00
         vertex 1.227809e+01 8.616756e+00 2.600000e+00
         vertex 1.409539e+00 5.130302e-01 2.600000e+00
      endloop
   endfacet
   facet normal -0.000000e+00 0.000000e+00 1.000000e+00
      outer loop
         vertex -1.349071e+01 6.557488e+00 2.600000e+00
         vertex -1.463306e+01 3.297497e+00 2.600000e+00
         vertex -1.098060e+01 -5.123377e-01 2.600000e+00
      endloop
   endfacet
   facet normal 0.000000e+00 0.000000e+00 1.000000e+00
      outer loop
         vertex -8.939048e+00 -1.204547e+01 2.600000e+00
         vertex -5.946516e+00 -1.377095e+01 2.600000e+00
         vertex -7.846031e+00 -9.083255e+00 2.600000e+00
      endloop
   endfacet
   facet normal 0.000000e+00 0.000000e+00 1.000000e+00
      outer loop
         vertex 2.628173e+01 -4.726638e+00 2.600000e+00
         vertex 2.679192e+01 -3.967171e+00 2.600000e+00
         vertex 1.392367e+01 5.579557e+00 2.600000e+00
      endloop
   endfacet
   facet normal 0.000000e+00 -0.000000e+00 1.000000e+00
      outer loop
         vertex -7.275811e+00 -6.475104e+00 2.600000e+00
         vertex -6.866452e+00 -7.409090e+00 2.600000e+00
         vertex -2.604723e-01 -1.477212e+00 2.600000e+00
      endloop
   endfacet
   facet normal 0.000000e+00 0.000000e+00 1.000000e+00
      outer loop
         vertex -1.169275e+01 -5.772084e+00 2.600000e+00
         vertex -1.280550e+01 -2.461015e+00 2.600000e+00
         vertex -1.457021e+01 -3.564956e+00 2.600000e+00
      endloop
   endfacet
   facet normal 0.000000e+00 0.000000e+00 1.000000e+00
      outer loop
         vertex 6.993561e+00 -5.051857e+00 2.600000e+00
         vertex 7.816914e+00 -4.450199e+00 2.600000e+00
         vertex 1.409539e+00 -5.130302e-01 2.600000e+00
      endloop
   endfacet
   facet normal -0.000000e+00 0.000000e+00 1.000000e+00
      outer loop
         vertex 9.981090e+00 -6.013509e+00 2.600000e+00
         vertex 9.668630e+00 -6.984216e+00 2.600000e+00
         vertex 1.981800e+01 -1.143403e+01 2.600000e+00
      endloop
   endfacet
   facet normal 0.000000e+00 0.000000e+00 1.000000e+00
      outer loop
         vertex -1.149067e+00 -9.641814e-01 2.600000e+00
         vertex -1.500000e+00 -6.921730e-15 2.600000e+00
         vertex -8.733656e+00 -4.311339e+00 2.600000e+00
      endloop
   endfacet
   facet normal 0.000000e+00 -0.000000e+00 1.000000e+00
      outer loop
         vertex 7.500000e-01 1.299038e+00 2.600000e+00
         vertex 1.409539e+00 5.130302e-01 2.600000e+00
         vertex 1.227809e+01 8.616756e+00 2.600000e+00
      endloop
   endfacet
   facet normal 0.000000e+00 0.000000e+00 1.000000e+00
      outer loop
         vertex -2.604723e-01 1.477212e+00 2.600000e+00
         vertex -2.908626e+00 1.471529e+01 2.600000e+00
         vertex -6.197740e+00 1.365972e+01 2.600000e+00
      endloop
   endfacet
   facet normal 0.000000e+00 0.000000e+00 1.000000e+00
      outer loop
         vertex -1.005730e+01 -9.452608e-01 2.600000e+00
         vertex -1.349071e+01 6.557488e+00 2.600000e+00
         vertex -1.098060e+01 -5.123377e-01 2.600000e+00
      endloop
   endfacet
   facet normal 0.000000e+00 -0.000000e+00 1.000000e+00
      outer loop
         vertex 9.668630e+00 -6.984216e+00 2.600000e+00
         vertex 1.572874e+01 -1.392155e+01 2.600000e+00
         vertex 1.981800e+01 -1.143403e+01 2.600000e+00
      endloop
   endfacet
   facet normal 0.000000e+00 0.000000e+00 1.000000e+00
      outer loop
         vertex -1.280550e+01 -2.461015e+00 2.600000e+00
         vertex -1.499937e+01 -1.373722e-01 2.600000e+00
         vertex -1.457021e+01 -3.564956e+00 2.600000e+00
      endloop
   endfacet
   facet normal 0.000000e+00 0.000000e+00 1.000000e+00
      outer loop
         vertex 2.561779e+00 -1.008879e+01 2.600000e+00
         vertex -7.084257e+00 -8.405314e+00 2.600000e+00
         vertex -2.638619e+00 -1.476610e+01 2.600000e+00
      endloop
   endfacet
   facet normal 0.000000e+00 0.000000e+00 1.000000e+00
      outer loop
         vertex -1.149067e+00 9.641814e-01 2.600000e+00
         vertex -1.163291e+01 9.469714e+00 2.600000e+00
         vertex -1.005730e+01 -9.452608e-01 2.600000e+00
      endloop
   endfacet
   facet normal 0.000000e+00 0.000000e+00 1.000000e+00
      outer loop
         vertex 6.993561e+00 -5.051857e+00 2.600000e+00
         vertex 1.409539e+00 -5.130302e-01 2.600000e+00
         vertex 7.500000e-01 -1.299038e+00 2.600000e+00
      endloop
   endfacet
   facet normal 0.000000e+00 -0.000000e+00 1.000000e+00
      outer loop
         vertex -9.564800e+00 -1.838204e+00 2.600000e+00
         vertex -8.733656e+00 -4.311339e+00 2.600000e+00
         vertex -1.500000e+00 -6.921730e-15 2.600000e+00
      endloop
   endfacet
   facet normal 0.000000e+00 -0.000000e+00 1.000000e+00
      outer loop
         vertex 8.836666e+00 -4.447400e+00 2.600000e+00
         vertex 9.663307e+00 -5.044532e+00 2.600000e+00
         vertex 1.392367e+01 5.579557e+00 2.600000e+00
      endloop
   endfacet
   facet normal 0.000000e+00 0.000000e+00 1.000000e+00
      outer loop
         vertex -1.149067e+00 9.641814e-01 2.600000e+00
         vertex -2.604723e-01 1.477212e+00 2.600000e+00
         vertex -6.197740e+00 1.365972e+01 2.600000e+00
      endloop
   endfacet
   facet normal 0.000000e+00 0.000000e+00 1.000000e+00
      outer loop
         vertex -6.866452e+00 -7.409090e+00 2.600000e+00
         vertex 2.542638e+00 -8.826081e+00 2.600000e+00
         vertex -2.604723e-01 -1.477212e+00 2.600000e+00
      endloop
   endfacet
   facet normal 0.000000e+00 0.000000e+00 1.000000e+00
      outer loop
         vertex -7.846031e+00 -9.083255e+00 2.600000e+00
         vertex -5.946516e+00 -1.377095e+01 2.600000e+00
         vertex -7.084257e+00 -8.405314e+00 2.600000e+00
      endloop
   endfacet
   facet normal 0.000000e+00 0.000000e+00 1.000000e+00
      outer loop
         vertex 2.542638e+00 -8.826081e+00 2.600000e+00
         vertex 3.421974e+00 -7.919675e+00 2.600000e+00
         vertex -2.604723e-01 -1.477212e+00 2.600000e+00
      endloop
   endfacet
   facet normal 9.396926e-01 3.420201e-01 -0.000000e+00
      outer loop
         vertex -1.149067e+00 -9.641814e-01 0.000000e+00
         vertex -1.500000e+00 -6.921730e-15 0.000000e+00
         vertex -1.500000e+00 -6.921730e-15 2.600000e+00
      endloop
   endfacet
   facet normal -1.736482e-01 9.848078e-01 0.000000e+00
      outer loop
         vertex 7.500000e-01 -1.299038e+00 2.600000e+00
         vertex 7.500000e-01 -1.299038e+00 0.000000e+00
         vertex -2.604723e-01 -1.477212e+00 0.000000e+00
      endloop
   endfacet
   facet normal -1.000000e+00 0.000000e+00 0.000000e+00
      outer loop
         vertex 1.409539e+00 5.130302e-01 2.600000e+00
         vertex 1.409539e+00 5.130302e-01 0.000000e+00
         vertex 1.409539e+00 -5.130302e-01 0.000000e+00
      endloop
   endfacet
   facet normal -1.736482e-01 -9.848078e-01 0.000000e+00
      outer loop
         vertex -2.604723e-01 1.477212e+00 2.600000e+00
         vertex -2.604723e-01 1.477212e+00 0.000000e+00
         vertex 7.500000e-01 1.299038e+00 0.000000e+00
      endloop
   endfacet
   facet normal 9.396926e-01 -3.420201e-01 0.000000e+00
      outer loop
         vertex -1.500000e+00 -6.921730e-15 2.600000e+00
         vertex -1.500000e+00 -6.921730e-15 0.000000e+00
         vertex -1.149067e+00 9.641814e-01 0.000000e+00
      endloop
   endfacet
   facet normal 5.000000e-01 -8.660254e-01 0.000000e+00
      outer loop
         vertex -2.604723e-01 1.477212e+00 0.000000e+00
         vertex -2.604723e-01 1.477212e+00 2.600000e+00
         vertex -1.149067e+00 9.641814e-01 2.600000e+00
      endloop
   endfacet
   facet normal -7.660444e-01 -6.427877e-01 -0.000000e+00
      outer loop
         vertex 1.409539e+00 5.130302e-01 0.000000e+00
         vertex 1.409539e+00 5.130302e-01 2.600000e+00
         vertex 7.500000e-01 1.299038e+00 2.600000e+00
      endloop
   endfacet
   facet normal -7.660444e-01 6.427877e-01 0.000000e+00
      outer loop
         vertex 7.500000e-01 -1.299038e+00 0.000000e+00
         vertex 7.500000e-01 -1.299038e+00 2.600000e+00
         vertex 1.409539e+00 -5.130302e-01 2.600000e+00
      endloop
   endfacet
   facet normal 5.000000e-01 8.660254e-01 0.000000e+00
      outer loop
         vertex -1.149067e+00 -9.641814e-01 0.000000e+00
         vertex -1.149067e+00 -9.641814e-01 2.600000e+00
         vertex -2.604723e-01 -1.477212e+00 2.600000e+00
      endloop
   endfacet
   facet normal 9.396926e-01 3.420201e-01 -0.000000e+00
      outer loop
         vertex -1.149067e+00 -9.641814e-01 2.600000e+00
         vertex -1.149067e+00 -9.641814e-01 0.000000e+00
         vertex -1.500000e+00 -6.921730e-15 2.600000e+00
      endloop
   endfacet
   facet normal -1.736482e-01 -9.848078e-01 0.000000e+00
      outer loop
         vertex 7.500000e-01 1.299038e+00 2.600000e+00
         vertex -2.604723e-01 1.477212e+00 2.600000e+00
         vertex 7.500000e-01 1.299038e+00 0.000000e+00
      endloop
   endfacet
   facet normal -7.660444e-01 -6.427877e-01 0.000000e+00
      outer loop
         vertex 7.500000e-01 1.299038e+00 0.000000e+00
         vertex 1.409539e+00 5.130302e-01 0.000000e+00
         vertex 7.500000e-01 1.299038e+00 2.600000e+00
      endloop
   endfacet
   facet normal 5.000000e-01 8.660254e-01 -0.000000e+00
      outer loop
         vertex -2.604723e-01 -1.477212e+00 2.600000e+00
         vertex -2.604723e-01 -1.477212e+00 0.000000e+00
         vertex -1.149067e+00 -9.641814e-01 0.000000e+00
      endloop
   endfacet
   facet normal 5.000000e-01 -8.660254e-01 0.000000e+00
      outer loop
         vertex -1.149067e+00 9.641814e-01 2.600000e+00
         vertex -1.149067e+00 9.641814e-01 0.000000e+00
         vertex -2.604723e-01 1.477212e+00 0.000000e+00
      endloop
   endfacet
   facet normal -1.000000e+00 0.000000e+00 0.000000e+00
      outer loop
         vertex 1.409539e+00 -5.130302e-01 0.000000e+00
         vertex 1.409539e+00 -5.130302e-01 2.600000e+00
         vertex 1.409539e+00 5.130302e-01 2.600000e+00
      endloop
   endfacet
   facet normal -1.736482e-01 9.848078e-01 0.000000e+00
      outer loop
         vertex -2.604723e-01 -1.477212e+00 2.600000e+00
         vertex 7.500000e-01 -1.299038e+00 2.600000e+00
         vertex -2.604723e-01 -1.477212e+00 0.000000e+00
      endloop
   endfacet
   facet normal 9.396926e-01 -3.420201e-01 0.000000e+00
      outer loop
         vertex -1.500000e+00 -6.921730e-15 2.600000e+00
         vertex -1.149067e+00 9.641814e-01 0.000000e+00
         vertex -1.149067e+00 9.641814e-01 2.600000e+00
      endloop
   endfacet
   facet normal -7.660444e-01 6.427877e-01 0.000000e+00
      outer loop
         vertex 1.409539e+00 -5.130302e-01 2.600000e+00
         vertex 1.409539e+00 -5.130302e-01 0.000000e+00
         vertex 7.500000e-01 -1.299038e+00 0.000000e+00
      endloop
   endfacet
   facet normal -5.160199e-01 8.565766e-01 0.000000e+00
      outer loop
         vertex 7.467692e+00 -9.300282e+00 0.000000e+00
         vertex 4.730895e+00 -1.094899e+01 0.000000e+00
         vertex 4.730895e+00 -1.094899e+01 2.600000e+00
      endloop
   endfacet
   facet normal -7.248940e-01 6.888604e-01 0.000000e+00
      outer loop
         vertex 7.467692e+00 -9.300282e+00 0.000000e+00
         vertex 9.668630e+00 -6.984216e+00 2.600000e+00
         vertex 9.668630e+00 -6.984216e+00 0.000000e+00
      endloop
   endfacet
   facet normal -5.160199e-01 8.565766e-01 0.000000e+00
      outer loop
         vertex 7.467692e+00 -9.300282e+00 2.600000e+00
         vertex 7.467692e+00 -9.300282e+00 0.000000e+00
         vertex 4.730895e+00 -1.094899e+01 2.600000e+00
      endloop
   endfacet
   facet normal -7.248940e-01 6.888604e-01 0.000000e+00
      outer loop
         vertex 7.467692e+00 -9.300282e+00 0.000000e+00
         vertex 7.467692e+00 -9.300282e+00 2.600000e+00
         vertex 9.668630e+00 -6.984216e+00 2.600000e+00
      endloop
   endfacet
   facet normal 7.177432e-01 -6.963080e-01 0.000000e+00
      outer loop
         vertex 2.542638e+00 -8.826081e+00 0.000000e+00
         vertex 3.421974e+00 -7.919675e+00 0.000000e+00
         vertex 3.421974e+00 -7.919675e+00 2.600000e+00
      endloop
   endfacet
   facet normal 6.963080e-01 7.177431e-01 -0.000000e+00
      outer loop
         vertex 3.468185e+00 -1.096813e+01 2.600000e+00
         vertex 3.468185e+00 -1.096813e+01 0.000000e+00
         vertex 2.561779e+00 -1.008879e+01 0.000000e+00
      endloop
   endfacet
   facet normal -1.515632e-02 9.998851e-01 0.000000e+00
      outer loop
         vertex 3.468185e+00 -1.096813e+01 2.600000e+00
         vertex 4.730895e+00 -1.094899e+01 2.600000e+00
         vertex 4.730895e+00 -1.094899e+01 0.000000e+00
      endloop
   endfacet
   facet normal 9.998851e-01 1.515690e-02 0.000000e+00
      outer loop
         vertex 2.542638e+00 -8.826081e+00 0.000000e+00
         vertex 2.542638e+00 -8.826081e+00 2.600000e+00
         vertex 2.561779e+00 -1.008879e+01 2.600000e+00
      endloop
   endfacet
   facet normal 7.177432e-01 -6.963080e-01 0.000000e+00
      outer loop
         vertex 2.542638e+00 -8.826081e+00 2.600000e+00
         vertex 2.542638e+00 -8.826081e+00 0.000000e+00
         vertex 3.421974e+00 -7.919675e+00 2.600000e+00
      endloop
   endfacet
   facet normal -1.515632e-02 9.998851e-01 0.000000e+00
      outer loop
         vertex 3.468185e+00 -1.096813e+01 0.000000e+00
         vertex 3.468185e+00 -1.096813e+01 2.600000e+00
         vertex 4.730895e+00 -1.094899e+01 0.000000e+00
      endloop
   endfacet
   facet normal 9.998851e-01 1.515690e-02 -0.000000e+00
      outer loop
         vertex 2.561779e+00 -1.008879e+01 2.600000e+00
         vertex 2.561779e+00 -1.008879e+01 0.000000e+00
         vertex 2.542638e+00 -8.826081e+00 0.000000e+00
      endloop
   endfacet
   facet normal 6.963080e-01 7.177431e-01 0.000000e+00
      outer loop
         vertex 2.561779e+00 -1.008879e+01 2.600000e+00
         vertex 3.468185e+00 -1.096813e+01 2.600000e+00
         vertex 2.561779e+00 -1.008879e+01 0.000000e+00
      endloop
   endfacet
   facet normal 7.248941e-01 -6.888604e-01 0.000000e+00
      outer loop
         vertex 5.401568e+00 -6.727126e+00 0.000000e+00
         vertex 6.993561e+00 -5.051857e+00 0.000000e+00
         vertex 6.993561e+00 -5.051857e+00 2.600000e+00
      endloop
   endfacet
   facet normal 5.160198e-01 -8.565766e-01 0.000000e+00
      outer loop
         vertex 5.401568e+00 -6.727126e+00 0.000000e+00
         vertex 3.421974e+00 -7.919675e+00 2.600000e+00
         vertex 3.421974e+00 -7.919675e+00 0.000000e+00
      endloop
   endfacet
   facet normal 7.248941e-01 -6.888604e-01 0.000000e+00
      outer loop
         vertex 5.401568e+00 -6.727126e+00 2.600000e+00
         vertex 5.401568e+00 -6.727126e+00 0.000000e+00
         vertex 6.993561e+00 -5.051857e+00 2.600000e+00
      endloop
   endfacet
   facet normal 5.160198e-01 -8.565766e-01 0.000000e+00
      outer loop
         vertex 5.401568e+00 -6.727126e+00 0.000000e+00
         vertex 5.401568e+00 -6.727126e+00 2.600000e+00
         vertex 3.421974e+00 -7.919675e+00 2.600000e+00
      endloop
   endfacet
   facet normal -9.519008e-01 3.064064e-01 0.000000e+00
      outer loop
         vertex 9.981090e+00 -6.013509e+00 0.000000e+00
         vertex 9.668630e+00 -6.984216e+00 0.000000e+00
         vertex 9.668630e+00 -6.984216e+00 2.600000e+00
      endloop
   endfacet
   facet normal -5.855635e-01 -8.106266e-01 0.000000e+00
      outer loop
         vertex 8.836666e+00 -4.447400e+00 2.600000e+00
         vertex 8.836666e+00 -4.447400e+00 0.000000e+00
         vertex 9.663307e+00 -5.044532e+00 0.000000e+00
      endloop
   endfacet
   facet normal 5.900027e-01 -8.074013e-01 0.000000e+00
      outer loop
         vertex 7.816914e+00 -4.450199e+00 2.600000e+00
         vertex 6.993561e+00 -5.051857e+00 0.000000e+00
         vertex 7.816914e+00 -4.450199e+00 0.000000e+00
      endloop
   endfacet
   facet normal 5.900027e-01 -8.074013e-01 0.000000e+00
      outer loop
         vertex 6.993561e+00 -5.051857e+00 0.000000e+00
         vertex 7.816914e+00 -4.450199e+00 2.600000e+00
         vertex 6.993561e+00 -5.051857e+00 2.600000e+00
      endloop
   endfacet
   facet normal -9.502049e-01 -3.116258e-01 -0.000000e+00
      outer loop
         vertex 9.981090e+00 -6.013509e+00 0.000000e+00
         vertex 9.981090e+00 -6.013509e+00 2.600000e+00
         vertex 9.663307e+00 -5.044532e+00 2.600000e+00
      endloop
   endfacet
   facet normal -9.519008e-01 3.064064e-01 0.000000e+00
      outer loop
         vertex 9.981090e+00 -6.013509e+00 2.600000e+00
         vertex 9.981090e+00 -6.013509e+00 0.000000e+00
         vertex 9.668630e+00 -6.984216e+00 2.600000e+00
      endloop
   endfacet
   facet normal 2.744339e-03 -9.999962e-01 0.000000e+00
      outer loop
         vertex 8.836666e+00 -4.447400e+00 0.000000e+00
         vertex 7.816914e+00 -4.450199e+00 2.600000e+00
         vertex 7.816914e+00 -4.450199e+00 0.000000e+00
      endloop
   endfacet
   facet normal -9.502049e-01 -3.116258e-01 0.000000e+00
      outer loop
         vertex 9.663307e+00 -5.044532e+00 2.600000e+00
         vertex 9.663307e+00 -5.044532e+00 0.000000e+00
         vertex 9.981090e+00 -6.013509e+00 0.000000e+00
      endloop
   endfacet
   facet normal -5.855635e-01 -8.106266e-01 -0.000000e+00
      outer loop
         vertex 9.663307e+00 -5.044532e+00 0.000000e+00
         vertex 9.663307e+00 -5.044532e+00 2.600000e+00
         vertex 8.836666e+00 -4.447400e+00 2.600000e+00
      endloop
   endfacet
   facet normal 2.744339e-03 -9.999962e-01 0.000000e+00
      outer loop
         vertex 8.836666e+00 -4.447400e+00 2.600000e+00
         vertex 7.816914e+00 -4.450199e+00 2.600000e+00
         vertex 8.836666e+00 -4.447400e+00 0.000000e+00
      endloop
   endfacet
   facet normal 5.050176e-01 8.631090e-01 -0.000000e+00
      outer loop
         vertex -8.860802e+00 -9.183960e+00 0.000000e+00
         vertex -9.740962e+00 -8.668965e+00 0.000000e+00
         vertex -9.740962e+00 -8.668965e+00 2.600000e+00
      endloop
   endfacet
   facet normal -6.648063e-01 7.470158e-01 0.000000e+00
      outer loop
         vertex -7.084257e+00 -8.405314e+00 2.600000e+00
         vertex -7.084257e+00 -8.405314e+00 0.000000e+00
         vertex -7.846031e+00 -9.083255e+00 0.000000e+00
      endloop
   endfacet
   facet normal -9.158907e-01 -4.014278e-01 0.000000e+00
      outer loop
         vertex -7.275811e+00 -6.475104e+00 2.600000e+00
         vertex -7.275811e+00 -6.475104e+00 0.000000e+00
         vertex -6.866452e+00 -7.409090e+00 0.000000e+00
      endloop
   endfacet
   facet normal -9.769245e-01 2.135848e-01 0.000000e+00
      outer loop
         vertex -7.084257e+00 -8.405314e+00 0.000000e+00
         vertex -7.084257e+00 -8.405314e+00 2.600000e+00
         vertex -6.866452e+00 -7.409090e+00 2.600000e+00
      endloop
   endfacet
   facet normal -9.875419e-02 9.951119e-01 0.000000e+00
      outer loop
         vertex -8.860802e+00 -9.183960e+00 0.000000e+00
         vertex -8.860802e+00 -9.183960e+00 2.600000e+00
         vertex -7.846031e+00 -9.083255e+00 2.600000e+00
      endloop
   endfacet
   facet normal 5.050176e-01 8.631090e-01 -0.000000e+00
      outer loop
         vertex -8.860802e+00 -9.183960e+00 2.600000e+00
         vertex -8.860802e+00 -9.183960e+00 0.000000e+00
         vertex -9.740962e+00 -8.668965e+00 2.600000e+00
      endloop
   endfacet
   facet normal -9.769245e-01 2.135848e-01 0.000000e+00
      outer loop
         vertex -6.866452e+00 -7.409090e+00 0.000000e+00
         vertex -7.084257e+00 -8.405314e+00 0.000000e+00
         vertex -6.866452e+00 -7.409090e+00 2.600000e+00
      endloop
   endfacet
   facet normal -9.875419e-02 9.951119e-01 0.000000e+00
      outer loop
         vertex -7.846031e+00 -9.083255e+00 2.600000e+00
         vertex -7.846031e+00 -9.083255e+00 0.000000e+00
         vertex -8.860802e+00 -9.183960e+00 0.000000e+00
      endloop
   endfacet
   facet normal -6.648063e-01 7.470158e-01 0.000000e+00
      outer loop
         vertex -7.846031e+00 -9.083255e+00 0.000000e+00
         vertex -7.846031e+00 -9.083255e+00 2.600000e+00
         vertex -7.084257e+00 -8.405314e+00 2.600000e+00
      endloop
   endfacet
   facet normal -9.158907e-01 -4.014278e-01 0.000000e+00
      outer loop
         vertex -7.275811e+00 -6.475104e+00 2.600000e+00
         vertex -6.866452e+00 -7.409090e+00 0.000000e+00
         vertex -6.866452e+00 -7.409090e+00 2.600000e+00
      endloop
   endfacet
   facet normal 9.479025e-01 3.185605e-01 -0.000000e+00
      outer loop
         vertex -1.169275e+01 -5.772084e+00 0.000000e+00
         vertex -1.280550e+01 -2.461015e+00 0.000000e+00
         vertex -1.280550e+01 -2.461015e+00 2.600000e+00
      endloop
   endfacet
   facet normal 8.293274e-01 5.587629e-01 0.000000e+00
      outer loop
         vertex -1.169275e+01 -5.772084e+00 0.000000e+00
         vertex -9.740962e+00 -8.668965e+00 2.600000e+00
         vertex -9.740962e+00 -8.668965e+00 0.000000e+00
      endloop
   endfacet
   facet normal 9.479025e-01 3.185605e-01 -0.000000e+00
      outer loop
         vertex -1.169275e+01 -5.772084e+00 2.600000e+00
         vertex -1.169275e+01 -5.772084e+00 0.000000e+00
         vertex -1.280550e+01 -2.461015e+00 2.600000e+00
      endloop
   endfacet
   facet normal 8.293274e-01 5.587629e-01 0.000000e+00
      outer loop
         vertex -1.169275e+01 -5.772084e+00 0.000000e+00
         vertex -1.169275e+01 -5.772084e+00 2.600000e+00
         vertex -9.740962e+00 -8.668965e+00 2.600000e+00
      endloop
   endfacet
   facet normal -8.756440e-01 -4.829571e-01 0.000000e+00
      outer loop
         vertex -1.005730e+01 -9.452608e-01 0.000000e+00
         vertex -9.564800e+00 -1.838204e+00 0.000000e+00
         vertex -9.564800e+00 -1.838204e+00 2.600000e+00
      endloop
   endfacet
   facet normal 1.887304e-01 -9.820289e-01 0.000000e+00
      outer loop
         vertex -1.198203e+01 -7.047968e-01 2.600000e+00
         vertex -1.198203e+01 -7.047968e-01 0.000000e+00
         vertex -1.098060e+01 -5.123377e-01 0.000000e+00
      endloop
   endfacet
   facet normal 9.922860e-01 -1.239699e-01 0.000000e+00
      outer loop
         vertex -1.280550e+01 -2.461015e+00 2.600000e+00
         vertex -1.280550e+01 -2.461015e+00 0.000000e+00
         vertex -1.267908e+01 -1.449125e+00 0.000000e+00
      endloop
   endfacet
   facet normal 7.299083e-01 -6.835450e-01 0.000000e+00
      outer loop
         vertex -1.198203e+01 -7.047968e-01 0.000000e+00
         vertex -1.198203e+01 -7.047968e-01 2.600000e+00
         vertex -1.267908e+01 -1.449125e+00 2.600000e+00
      endloop
   endfacet
   facet normal -4.245362e-01 -9.054110e-01 -0.000000e+00
      outer loop
         vertex -1.005730e+01 -9.452608e-01 0.000000e+00
         vertex -1.005730e+01 -9.452608e-01 2.600000e+00
         vertex -1.098060e+01 -5.123377e-01 2.600000e+00
      endloop
   endfacet
   facet normal -8.756440e-01 -4.829571e-01 0.000000e+00
      outer loop
         vertex -1.005730e+01 -9.452608e-01 2.600000e+00
         vertex -1.005730e+01 -9.452608e-01 0.000000e+00
         vertex -9.564800e+00 -1.838204e+00 2.600000e+00
      endloop
   endfacet
   facet normal 7.299083e-01 -6.835450e-01 0.000000e+00
      outer loop
         vertex -1.267908e+01 -1.449125e+00 0.000000e+00
         vertex -1.198203e+01 -7.047968e-01 0.000000e+00
         vertex -1.267908e+01 -1.449125e+00 2.600000e+00
      endloop
   endfacet
   facet normal -4.245362e-01 -9.054110e-01 0.000000e+00
      outer loop
         vertex -1.098060e+01 -5.123377e-01 2.600000e+00
         vertex -1.098060e+01 -5.123377e-01 0.000000e+00
         vertex -1.005730e+01 -9.452608e-01 0.000000e+00
      endloop
   endfacet
   facet normal 1.887304e-01 -9.820289e-01 0.000000e+00
      outer loop
         vertex -1.098060e+01 -5.123377e-01 0.000000e+00
         vertex -1.098060e+01 -5.123377e-01 2.600000e+00
         vertex -1.198203e+01 -7.047968e-01 2.600000e+00
      endloop
   endfacet
   facet normal 9.922860e-01 -1.239699e-01 0.000000e+00
      outer loop
         vertex -1.280550e+01 -2.461015e+00 2.600000e+00
         vertex -1.267908e+01 -1.449125e+00 0.000000e+00
         vertex -1.267908e+01 -1.449125e+00 2.600000e+00
      endloop
   endfacet
   facet normal -8.293276e-01 -5.587626e-01 0.000000e+00
      outer loop
         vertex -8.733656e+00 -4.311339e+00 0.000000e+00
         vertex -7.275811e+00 -6.475104e+00 0.000000e+00
         vertex -7.275811e+00 -6.475104e+00 2.600000e+00
      endloop
   endfacet
   facet normal -9.479024e-01 -3.185608e-01 -0.000000e+00
      outer loop
         vertex -8.733656e+00 -4.311339e+00 0.000000e+00
         vertex -9.564800e+00 -1.838204e+00 2.600000e+00
         vertex -9.564800e+00 -1.838204e+00 0.000000e+00
      endloop
   endfacet
   facet normal -8.293276e-01 -5.587626e-01 0.000000e+00
      outer loop
         vertex -8.733656e+00 -4.311339e+00 2.600000e+00
         vertex -8.733656e+00 -4.311339e+00 0.000000e+00
         vertex -7.275811e+00 -6.475104e+00 2.600000e+00
      endloop
   endfacet
   facet normal -9.479024e-01 -3.185608e-01 -0.000000e+00
      outer loop
         vertex -8.733656e+00 -4.311339e+00 0.000000e+00
         vertex -8.733656e+00 -4.311339e+00 2.600000e+00
         vertex -9.564800e+00 -1.838204e+00 2.600000e+00
      endloop
   endfacet
   facet normal -3.719705e-01 9.282446e-01 0.000000e+00
      outer loop
         vertex 2.970383e+01 1.190306e+01 2.600000e+00
         vertex 2.970383e+01 1.190306e+01 0.000000e+00
         vertex 1.392367e+01 5.579557e+00 0.000000e+00
      endloop
   endfacet
   facet normal -3.719705e-01 9.282446e-01 0.000000e+00
      outer loop
         vertex 1.392367e+01 5.579557e+00 2.600000e+00
         vertex 2.970383e+01 1.190306e+01 2.600000e+00
         vertex 1.392367e+01 5.579557e+00 0.000000e+00
      endloop
   endfacet
   facet normal -6.921639e-02 -9.976017e-01 0.000000e+00
      outer loop
         vertex 3.143706e+00 -1.579937e+01 2.600000e+00
         vertex 3.143706e+00 -1.579937e+01 0.000000e+00
         vertex 7.289273e+00 -1.608700e+01 0.000000e+00
      endloop
   endfacet
   facet normal 3.446278e-01 -9.387394e-01 0.000000e+00
      outer loop
         vertex 1.151181e+01 -1.546966e+01 0.000000e+00
         vertex 1.572874e+01 -1.392155e+01 0.000000e+00
         vertex 1.572874e+01 -1.392155e+01 2.600000e+00
      endloop
   endfacet
   facet normal 6.671705e-01 -7.449050e-01 0.000000e+00
      outer loop
         vertex 1.981800e+01 -1.143403e+01 0.000000e+00
         vertex 2.360257e+01 -8.044397e+00 0.000000e+00
         vertex 2.360257e+01 -8.044397e+00 2.600000e+00
      endloop
   endfacet
   facet normal 8.166718e-01 -5.771024e-01 0.000000e+00
      outer loop
         vertex 2.601756e+01 -5.100468e+00 0.000000e+00
         vertex 2.628173e+01 -4.726638e+00 0.000000e+00
         vertex 2.628173e+01 -4.726638e+00 2.600000e+00
      endloop
   endfacet
   facet normal 8.565211e-01 -5.161120e-01 0.000000e+00
      outer loop
         vertex 2.679192e+01 -3.967171e+00 0.000000e+00
         vertex 2.773356e+01 -2.404460e+00 0.000000e+00
         vertex 2.773356e+01 -2.404460e+00 2.600000e+00
      endloop
   endfacet
   facet normal 9.704254e-01 -2.414012e-01 0.000000e+00
      outer loop
         vertex 2.925281e+01 8.684773e-01 0.000000e+00
         vertex 3.033027e+01 5.199823e+00 0.000000e+00
         vertex 3.033027e+01 5.199823e+00 2.600000e+00
      endloop
   endfacet
   facet normal 9.745976e-01 2.239631e-01 -0.000000e+00
      outer loop
         vertex 3.031912e+01 9.225528e+00 0.000000e+00
         vertex 2.970383e+01 1.190306e+01 0.000000e+00
         vertex 2.970383e+01 1.190306e+01 2.600000e+00
      endloop
   endfacet
   facet normal 9.999962e-01 2.767411e-03 0.000000e+00
      outer loop
         vertex 3.031912e+01 9.225528e+00 2.600000e+00
         vertex 3.033027e+01 5.199823e+00 2.600000e+00
         vertex 3.033027e+01 5.199823e+00 0.000000e+00
      endloop
   endfacet
   facet normal 9.070436e-01 -4.210367e-01 0.000000e+00
      outer loop
         vertex 2.925281e+01 8.684773e-01 2.600000e+00
         vertex 2.773356e+01 -2.404460e+00 2.600000e+00
         vertex 2.773356e+01 -2.404460e+00 0.000000e+00
      endloop
   endfacet
   facet normal 8.300890e-01 -5.576309e-01 0.000000e+00
      outer loop
         vertex 2.679192e+01 -3.967171e+00 2.600000e+00
         vertex 2.628173e+01 -4.726638e+00 2.600000e+00
         vertex 2.628173e+01 -4.726638e+00 0.000000e+00
      endloop
   endfacet
   facet normal 7.731429e-01 -6.342318e-01 0.000000e+00
      outer loop
         vertex 2.601756e+01 -5.100468e+00 2.600000e+00
         vertex 2.360257e+01 -8.044397e+00 2.600000e+00
         vertex 2.360257e+01 -8.044397e+00 0.000000e+00
      endloop
   endfacet
   facet normal 5.197047e-01 -8.543460e-01 0.000000e+00
      outer loop
         vertex 1.981800e+01 -1.143403e+01 2.600000e+00
         vertex 1.572874e+01 -1.392155e+01 2.600000e+00
         vertex 1.572874e+01 -1.392155e+01 0.000000e+00
      endloop
   endfacet
   facet normal 1.446628e-01 -9.894810e-01 0.000000e+00
      outer loop
         vertex 1.151181e+01 -1.546966e+01 2.600000e+00
         vertex 7.289273e+00 -1.608700e+01 2.600000e+00
         vertex 7.289273e+00 -1.608700e+01 0.000000e+00
      endloop
   endfacet
   facet normal -6.921639e-02 -9.976017e-01 0.000000e+00
      outer loop
         vertex 3.143706e+00 -1.579937e+01 2.600000e+00
         vertex 7.289273e+00 -1.608700e+01 0.000000e+00
         vertex 7.289273e+00 -1.608700e+01 2.600000e+00
      endloop
   endfacet
   facet normal 8.166718e-01 -5.771024e-01 0.000000e+00
      outer loop
         vertex 2.601756e+01 -5.100468e+00 0.000000e+00
         vertex 2.628173e+01 -4.726638e+00 2.600000e+00
         vertex 2.601756e+01 -5.100468e+00 2.600000e+00
      endloop
   endfacet
   facet normal 9.745976e-01 2.239631e-01 0.000000e+00
      outer loop
         vertex 3.031912e+01 9.225528e+00 0.000000e+00
         vertex 2.970383e+01 1.190306e+01 2.600000e+00
         vertex 3.031912e+01 9.225528e+00 2.600000e+00
      endloop
   endfacet
   facet normal 8.300890e-01 -5.576309e-01 0.000000e+00
      outer loop
         vertex 2.679192e+01 -3.967171e+00 2.600000e+00
         vertex 2.628173e+01 -4.726638e+00 0.000000e+00
         vertex 2.679192e+01 -3.967171e+00 0.000000e+00
      endloop
   endfacet
   facet normal 1.446628e-01 -9.894810e-01 0.000000e+00
      outer loop
         vertex 1.151181e+01 -1.546966e+01 2.600000e+00
         vertex 7.289273e+00 -1.608700e+01 0.000000e+00
         vertex 1.151181e+01 -1.546966e+01 0.000000e+00
      endloop
   endfacet
   facet normal 8.565211e-01 -5.161120e-01 0.000000e+00
      outer loop
         vertex 2.679192e+01 -3.967171e+00 2.600000e+00
         vertex 2.679192e+01 -3.967171e+00 0.000000e+00
         vertex 2.773356e+01 -2.404460e+00 2.600000e+00
      endloop
   endfacet
   facet normal 5.197047e-01 -8.543460e-01 0.000000e+00
      outer loop
         vertex 1.572874e+01 -1.392155e+01 0.000000e+00
         vertex 1.981800e+01 -1.143403e+01 0.000000e+00
         vertex 1.981800e+01 -1.143403e+01 2.600000e+00
      endloop
   endfacet
   facet normal 9.070436e-01 -4.210367e-01 0.000000e+00
      outer loop
         vertex 2.773356e+01 -2.404460e+00 0.000000e+00
         vertex 2.925281e+01 8.684773e-01 0.000000e+00
         vertex 2.925281e+01 8.684773e-01 2.600000e+00
      endloop
   endfacet
   facet normal 9.704254e-01 -2.414012e-01 0.000000e+00
      outer loop
         vertex 3.033027e+01 5.199823e+00 2.600000e+00
         vertex 2.925281e+01 8.684773e-01 2.600000e+00
         vertex 2.925281e+01 8.684773e-01 0.000000e+00
      endloop
   endfacet
   facet normal 3.446278e-01 -9.387394e-01 0.000000e+00
      outer loop
         vertex 1.572874e+01 -1.392155e+01 2.600000e+00
         vertex 1.151181e+01 -1.546966e+01 2.600000e+00
         vertex 1.151181e+01 -1.546966e+01 0.000000e+00
      endloop
   endfacet
   facet normal 9.999962e-01 2.767411e-03 0.000000e+00
      outer loop
         vertex 3.031912e+01 9.225528e+00 2.600000e+00
         vertex 3.033027e+01 5.199823e+00 0.000000e+00
         vertex 3.031912e+01 9.225528e+00 0.000000e+00
      endloop
   endfacet
   facet normal 6.671705e-01 -7.449050e-01 0.000000e+00
      outer loop
         vertex 1.981800e+01 -1.143403e+01 2.600000e+00
         vertex 1.981800e+01 -1.143403e+01 0.000000e+00
         vertex 2.360257e+01 -8.044397e+00 2.600000e+00
      endloop
   endfacet
   facet normal 7.731429e-01 -6.342318e-01 0.000000e+00
      outer loop
         vertex 2.360257e+01 -8.044397e+00 0.000000e+00
         vertex 2.601756e+01 -5.100468e+00 0.000000e+00
         vertex 2.601756e+01 -5.100468e+00 2.600000e+00
      endloop
   endfacet
   facet normal -1.759081e-01 -9.844066e-01 0.000000e+00
      outer loop
         vertex -2.638619e+00 -1.476610e+01 2.600000e+00
         vertex -2.638619e+00 -1.476610e+01 0.000000e+00
         vertex 3.143706e+00 -1.579937e+01 0.000000e+00
      endloop
   endfacet
   facet normal -1.759081e-01 -9.844066e-01 0.000000e+00
      outer loop
         vertex 3.143706e+00 -1.579937e+01 2.600000e+00
         vertex -2.638619e+00 -1.476610e+01 2.600000e+00
         vertex 3.143706e+00 -1.579937e+01 0.000000e+00
      endloop
   endfacet
   facet normal 8.792400e-01 4.763791e-01 -0.000000e+00
      outer loop
         vertex 1.392367e+01 5.579557e+00 2.600000e+00
         vertex 1.392367e+01 5.579557e+00 0.000000e+00
         vertex 1.227809e+01 8.616756e+00 0.000000e+00
      endloop
   endfacet
   facet normal 5.750467e-01 8.181206e-01 -0.000000e+00
      outer loop
         vertex 9.981364e+00 1.119698e+01 0.000000e+00
         vertex 7.155293e+00 1.318339e+01 0.000000e+00
         vertex 7.155293e+00 1.318339e+01 2.600000e+00
      endloop
   endfacet
   facet normal 1.504841e-01 9.886124e-01 -0.000000e+00
      outer loop
         vertex 3.949752e+00 1.447064e+01 0.000000e+00
         vertex 5.347429e-01 1.499047e+01 0.000000e+00
         vertex 5.347429e-01 1.499047e+01 2.600000e+00
      endloop
   endfacet
   facet normal -3.055781e-01 9.521670e-01 0.000000e+00
      outer loop
         vertex -2.908626e+00 1.471529e+01 0.000000e+00
         vertex -6.197740e+00 1.365972e+01 0.000000e+00
         vertex -6.197740e+00 1.365972e+01 2.600000e+00
      endloop
   endfacet
   facet normal -6.976764e-01 7.164131e-01 0.000000e+00
      outer loop
         vertex -9.158168e+00 1.187973e+01 0.000000e+00
         vertex -1.163291e+01 9.469714e+00 0.000000e+00
         vertex -1.163291e+01 9.469714e+00 2.600000e+00
      endloop
   endfacet
   facet normal -9.437362e-01 3.306991e-01 0.000000e+00
      outer loop
         vertex -1.349071e+01 6.557488e+00 0.000000e+00
         vertex -1.463306e+01 3.297497e+00 0.000000e+00
         vertex -1.463306e+01 3.297497e+00 2.600000e+00
      endloop
   endfacet
   facet normal -9.922525e-01 -1.242372e-01 0.000000e+00
      outer loop
         vertex -1.499937e+01 -1.373722e-01 0.000000e+00
         vertex -1.457021e+01 -3.564956e+00 0.000000e+00
         vertex -1.457021e+01 -3.564956e+00 2.600000e+00
      endloop
   endfacet
   facet normal -8.330696e-01 -5.531682e-01 0.000000e+00
      outer loop
         vertex -1.336835e+01 -6.803478e+00 0.000000e+00
         vertex -1.145751e+01 -9.681189e+00 0.000000e+00
         vertex -1.145751e+01 -9.681189e+00 2.600000e+00
      endloop
   endfacet
   facet normal -4.995077e-01 -8.663094e-01 0.000000e+00
      outer loop
         vertex -8.939048e+00 -1.204547e+01 0.000000e+00
         vertex -5.946516e+00 -1.377095e+01 0.000000e+00
         vertex -5.946516e+00 -1.377095e+01 2.600000e+00
      endloop
   endfacet
   facet normal -2.880874e-01 -9.576041e-01 -0.000000e+00
      outer loop
         vertex -2.638619e+00 -1.476610e+01 0.000000e+00
         vertex -2.638619e+00 -1.476610e+01 2.600000e+00
         vertex -5.946516e+00 -1.377095e+01 0.000000e+00
      endloop
   endfacet
   facet normal -6.844378e-01 -7.290713e-01 -0.000000e+00
      outer loop
         vertex -8.939048e+00 -1.204547e+01 2.600000e+00
         vertex -1.145751e+01 -9.681189e+00 2.600000e+00
         vertex -1.145751e+01 -9.681189e+00 0.000000e+00
      endloop
   endfacet
   facet normal -9.375210e-01 -3.479287e-01 -0.000000e+00
      outer loop
         vertex -1.336835e+01 -6.803478e+00 2.600000e+00
         vertex -1.457021e+01 -3.564956e+00 2.600000e+00
         vertex -1.457021e+01 -3.564956e+00 0.000000e+00
      endloop
   endfacet
   facet normal -9.943616e-01 1.060427e-01 0.000000e+00
      outer loop
         vertex -1.499937e+01 -1.373722e-01 2.600000e+00
         vertex -1.463306e+01 3.297497e+00 2.600000e+00
         vertex -1.463306e+01 3.297497e+00 0.000000e+00
      endloop
   endfacet
   facet normal -8.430614e-01 5.378173e-01 0.000000e+00
      outer loop
         vertex -1.349071e+01 6.557488e+00 2.600000e+00
         vertex -1.163291e+01 9.469714e+00 2.600000e+00
         vertex -1.163291e+01 9.469714e+00 0.000000e+00
      endloop
   endfacet
   facet normal -5.152909e-01 8.570154e-01 0.000000e+00
      outer loop
         vertex -9.158168e+00 1.187973e+01 2.600000e+00
         vertex -6.197740e+00 1.365972e+01 2.600000e+00
         vertex -6.197740e+00 1.365972e+01 0.000000e+00
      endloop
   endfacet
   facet normal -7.965917e-02 9.968222e-01 0.000000e+00
      outer loop
         vertex -2.908626e+00 1.471529e+01 2.600000e+00
         vertex 5.347429e-01 1.499047e+01 2.600000e+00
         vertex 5.347429e-01 1.499047e+01 0.000000e+00
      endloop
   endfacet
   facet normal 3.726467e-01 9.279733e-01 0.000000e+00
      outer loop
         vertex 3.949752e+00 1.447064e+01 2.600000e+00
         vertex 7.155293e+00 1.318339e+01 2.600000e+00
         vertex 7.155293e+00 1.318339e+01 0.000000e+00
      endloop
   endfacet
   facet normal 7.469500e-01 6.648802e-01 0.000000e+00
      outer loop
         vertex 9.981364e+00 1.119698e+01 2.600000e+00
         vertex 1.227809e+01 8.616756e+00 2.600000e+00
         vertex 1.227809e+01 8.616756e+00 0.000000e+00
      endloop
   endfacet
   facet normal 8.792400e-01 4.763791e-01 -0.000000e+00
      outer loop
         vertex 1.392367e+01 5.579557e+00 2.600000e+00
         vertex 1.227809e+01 8.616756e+00 0.000000e+00
         vertex 1.227809e+01 8.616756e+00 2.600000e+00
      endloop
   endfacet
   facet normal -3.055781e-01 9.521670e-01 0.000000e+00
      outer loop
         vertex -2.908626e+00 1.471529e+01 0.000000e+00
         vertex -6.197740e+00 1.365972e+01 2.600000e+00
         vertex -2.908626e+00 1.471529e+01 2.600000e+00
      endloop
   endfacet
   facet normal -9.922525e-01 -1.242372e-01 0.000000e+00
      outer loop
         vertex -1.499937e+01 -1.373722e-01 0.000000e+00
         vertex -1.457021e+01 -3.564956e+00 2.600000e+00
         vertex -1.499937e+01 -1.373722e-01 2.600000e+00
      endloop
   endfacet
   facet normal -2.880874e-01 -9.576041e-01 0.000000e+00
      outer loop
         vertex -5.946516e+00 -1.377095e+01 2.600000e+00
         vertex -5.946516e+00 -1.377095e+01 0.000000e+00
         vertex -2.638619e+00 -1.476610e+01 2.600000e+00
      endloop
   endfacet
   facet normal -9.943616e-01 1.060427e-01 0.000000e+00
      outer loop
         vertex -1.499937e+01 -1.373722e-01 2.600000e+00
         vertex -1.463306e+01 3.297497e+00 0.000000e+00
         vertex -1.499937e+01 -1.373722e-01 0.000000e+00
      endloop
   endfacet
   facet normal -7.965917e-02 9.968222e-01 0.000000e+00
      outer loop
         vertex -2.908626e+00 1.471529e+01 2.600000e+00
         vertex 5.347429e-01 1.499047e+01 0.000000e+00
         vertex -2.908626e+00 1.471529e+01 0.000000e+00
      endloop
   endfacet
   facet normal 7.469500e-01 6.648802e-01 -0.000000e+00
      outer loop
         vertex 1.227809e+01 8.616756e+00 0.000000e+00
         vertex 9.981364e+00 1.119698e+01 0.000000e+00
         vertex 9.981364e+00 1.119698e+01 2.600000e+00
      endloop
   endfacet
   facet normal -5.152909e-01 8.570154e-01 0.000000e+00
      outer loop
         vertex -6.197740e+00 1.365972e+01 0.000000e+00
         vertex -9.158168e+00 1.187973e+01 0.000000e+00
         vertex -9.158168e+00 1.187973e+01 2.600000e+00
      endloop
   endfacet
   facet normal -9.375210e-01 -3.479287e-01 0.000000e+00
      outer loop
         vertex -1.457021e+01 -3.564956e+00 0.000000e+00
         vertex -1.336835e+01 -6.803478e+00 0.000000e+00
         vertex -1.336835e+01 -6.803478e+00 2.600000e+00
      endloop
   endfacet
   facet normal -4.995077e-01 -8.663094e-01 -0.000000e+00
      outer loop
         vertex -5.946516e+00 -1.377095e+01 2.600000e+00
         vertex -8.939048e+00 -1.204547e+01 2.600000e+00
         vertex -8.939048e+00 -1.204547e+01 0.000000e+00
      endloop
   endfacet
   facet normal -9.437362e-01 3.306991e-01 0.000000e+00
      outer loop
         vertex -1.463306e+01 3.297497e+00 2.600000e+00
         vertex -1.349071e+01 6.557488e+00 2.600000e+00
         vertex -1.349071e+01 6.557488e+00 0.000000e+00
      endloop
   endfacet
   facet normal 1.504841e-01 9.886124e-01 0.000000e+00
      outer loop
         vertex 5.347429e-01 1.499047e+01 2.600000e+00
         vertex 3.949752e+00 1.447064e+01 2.600000e+00
         vertex 3.949752e+00 1.447064e+01 0.000000e+00
      endloop
   endfacet
   facet normal 5.750467e-01 8.181206e-01 0.000000e+00
      outer loop
         vertex 9.981364e+00 1.119698e+01 0.000000e+00
         vertex 7.155293e+00 1.318339e+01 2.600000e+00
         vertex 9.981364e+00 1.119698e+01 2.600000e+00
      endloop
   endfacet
   facet normal -6.844378e-01 -7.290713e-01 0.000000e+00
      outer loop
         vertex -8.939048e+00 -1.204547e+01 2.600000e+00
         vertex -1.145751e+01 -9.681189e+00 0.000000e+00
         vertex -8.939048e+00 -1.204547e+01 0.000000e+00
      endloop
   endfacet
   facet normal -6.976764e-01 7.164131e-01 0.000000e+00
      outer loop
         vertex -9.158168e+00 1.187973e+01 2.600000e+00
         vertex -9.158168e+00 1.187973e+01 0.000000e+00
         vertex -1.163291e+01 9.469714e+00 2.600000e+00
      endloop
   endfacet
   facet normal 3.726467e-01 9.279733e-01 -0.000000e+00
      outer loop
         vertex 7.155293e+00 1.318339e+01 0.000000e+00
         vertex 3.949752e+00 1.447064e+01 0.000000e+00
         vertex 3.949752e+00 1.447064e+01 2.600000e+00
      endloop
   endfacet
   facet normal -8.330696e-01 -5.531682e-01 -0.000000e+00
      outer loop
         vertex -1.145751e+01 -9.681189e+00 2.600000e+00
         vertex -1.336835e+01 -6.803478e+00 2.600000e+00
         vertex -1.336835e+01 -6.803478e+00 0.000000e+00
      endloop
   endfacet
   facet normal -8.430614e-01 5.378173e-01 0.000000e+00
      outer loop
         vertex -1.349071e+01 6.557488e+00 0.000000e+00
         vertex -1.349071e+01 6.557488e+00 2.600000e+00
         vertex -1.163291e+01 9.469714e+00 0.000000e+00
      endloop
   endfacet
endsolid
